<svg width="44" height="44" viewBox="0 0 44 44" fill="none" xmlns="http://www.w3.org/2000/svg">
<path d="M16.5625 22.0068C16.5625 22.2144 16.6372 22.397 16.7949 22.5547L23.3774 28.9878C23.5186 29.1372 23.7012 29.2119 23.917 29.2119C24.3486 29.2119 24.6807 28.8882 24.6807 28.4565C24.6807 28.2407 24.5894 28.0581 24.4565 27.917L18.4136 22.0068L24.4565 16.0967C24.5894 15.9556 24.6807 15.7646 24.6807 15.5571C24.6807 15.1255 24.3486 14.8018 23.917 14.8018C23.7012 14.8018 23.5186 14.8765 23.3774 15.0176L16.7949 21.459C16.6372 21.6084 16.5625 21.7993 16.5625 22.0068Z" fill="black"/>
</svg>
